HIERARCHY
ROOT reference
{
  OFFSET -65.3212 -1.93545 -120.338
  CHANNELS 6 Xposition Yposition Zposition Zrotation Xrotation Yrotation
  JOINT Hips
  {
    OFFSET 0 78.7191 0
    CHANNELS 3 Zrotation Xrotation Yrotation
    JOINT Chest
    {
      OFFSET 0 8.7983 -4.7612
      CHANNELS 3 Zrotation Xrotation Yrotation
      JOINT Chest2
      {
        OFFSET 0 8.0291 0.4195
        CHANNELS 3 Zrotation Xrotation Yrotation
        JOINT Chest3
        {
          OFFSET 0 9.9351 -2.2114
          CHANNELS 3 Zrotation Xrotation Yrotation
          JOINT Neck
          {
            OFFSET 0 22.3885 -0.4656
            CHANNELS 3 Zrotation Xrotation Yrotation
            JOINT Head
            {
              OFFSET -0.0001 12.643 3.4389
              CHANNELS 3 Zrotation Xrotation Yrotation
              End Site
              {
                OFFSET 0.0001 17.6655 0.5274
              }
            }
          }
          JOINT LeftCollar
          {
            OFFSET 2.2603 21.606 7.4023
            CHANNELS 3 Zrotation Xrotation Yrotation
            JOINT LeftShoulder
            {
              OFFSET 13.5163 -1.1332 -5.0146
              CHANNELS 3 Zrotation Xrotation Yrotation
              JOINT LeftElbow
              {
                OFFSET -0.0995 -28.05 -0.2431
                CHANNELS 3 Zrotation Xrotation Yrotation
                JOINT LeftWrist
                {
                  OFFSET 0.0679 -23.3996 -0.1402
                  CHANNELS 3 Zrotation Xrotation Yrotation
                  JOINT LeftFinger1
                  {
                    OFFSET 0.7932 -9.069 2.5189
                    CHANNELS 3 Zrotation Xrotation Yrotation
                    JOINT LeftFinger11
                    {
                      OFFSET -0.8272 -3.3923 0.5977
                      CHANNELS 3 Zrotation Xrotation Yrotation
                      JOINT LeftFinger12
                      {
                        OFFSET -0.5649 -2.3158 0.4082
                        CHANNELS 3 Zrotation Xrotation Yrotation
                        End Site
                        {
                          OFFSET -0.4919 -1.6479 0.2673
                        }
                      }
                    }
                  }
                  JOINT LeftFinger2
                  {
                    OFFSET 0.9159 -9.2044 0.2193
                    CHANNELS 3 Zrotation Xrotation Yrotation
                    JOINT LeftFinger21
                    {
                      OFFSET 0.0117 -4.1944 -0.0248
                      CHANNELS 3 Zrotation Xrotation Yrotation
                      JOINT LeftFinger22
                      {
                        OFFSET 0.0071 -2.3249 -0.0142
                        CHANNELS 3 Zrotation Xrotation Yrotation
                        End Site
                        {
                          OFFSET -0.1475 -2.0882 0.0028
                        }
                      }
                    }
                  }
                  JOINT LeftFinger3
                  {
                    OFFSET 0.6113 -8.7231 -2.0637
                    CHANNELS 3 Zrotation Xrotation Yrotation
                    JOINT LeftFinger31
                    {
                      OFFSET -0.1927 -3.8059 -0.2383
                      CHANNELS 3 Zrotation Xrotation Yrotation
                      JOINT LeftFinger32
                      {
                        OFFSET -0.1091 -2.1688 -0.1362
                        CHANNELS 3 Zrotation Xrotation Yrotation
                        End Site
                        {
                          OFFSET -0.2358 -1.9176 -0.0906
                        }
                      }
                    }
                  }
                  JOINT LeftFinger4
                  {
                    OFFSET -0.6151 -8.0947 -3.5641
                    CHANNELS 3 Zrotation Xrotation Yrotation
                    JOINT LeftFinger41
                    {
                      OFFSET -0.4882 -2.341 -0.6462
                      CHANNELS 3 Zrotation Xrotation Yrotation
                      JOINT LeftFinger42
                      {
                        OFFSET -0.3575 -1.7167 -0.4742
                        CHANNELS 3 Zrotation Xrotation Yrotation
                        End Site
                        {
                          OFFSET -0.4187 -1.5237 -0.3496
                        }
                      }
                    }
                  }
                  JOINT LeftFinger0
                  {
                    OFFSET -1.42 -1.8761 1.4223
                    CHANNELS 3 Zrotation Xrotation Yrotation
                    JOINT LeftFinger01
                    {
                      OFFSET -1.1471 -3.4929 2.6334
                      CHANNELS 3 Zrotation Xrotation Yrotation
                      JOINT LeftFinger02
                      {
                        OFFSET -0.823 -2.3 1.6571
                        CHANNELS 3 Zrotation Xrotation Yrotation
                        End Site
                        {
                          OFFSET -0.5822 -1.6914 1.1582
                        }
                      }
                    }
                  }
                }
              }
            }
          }
          JOINT RightCollar
          {
            OFFSET -2.2603 21.606 7.4023
            CHANNELS 3 Zrotation Xrotation Yrotation
            JOINT RightShoulder
            {
              OFFSET -13.5187 -1.1334 -5.0155
              CHANNELS 3 Zrotation Xrotation Yrotation
              JOINT RightElbow
              {
                OFFSET 0.0994 -28.0499 -0.2431
                CHANNELS 3 Zrotation Xrotation Yrotation
                JOINT RightWrist
                {
                  OFFSET -0.0679 -23.3996 -0.1402
                  CHANNELS 3 Zrotation Xrotation Yrotation
                  JOINT RightFinger1
                  {
                    OFFSET -0.7932 -9.0691 2.5189
                    CHANNELS 3 Zrotation Xrotation Yrotation
                    JOINT RightFinger11
                    {
                      OFFSET 0.8272 -3.3923 0.5977
                      CHANNELS 3 Zrotation Xrotation Yrotation
                      JOINT RightFinger12
                      {
                        OFFSET 0.565 -2.3158 0.4082
                        CHANNELS 3 Zrotation Xrotation Yrotation
                        End Site
                        {
                          OFFSET 0.4919 -1.6479 0.2673
                        }
                      }
                    }
                  }
                  JOINT RightFinger2
                  {
                    OFFSET -0.916 -9.2044 0.2193
                    CHANNELS 3 Zrotation Xrotation Yrotation
                    JOINT RightFinger21
                    {
                      OFFSET -0.0117 -4.1944 -0.0248
                      CHANNELS 3 Zrotation Xrotation Yrotation
                      JOINT RightFinger22
                      {
                        OFFSET -0.0071 -2.3249 -0.0142
                        CHANNELS 3 Zrotation Xrotation Yrotation
                        End Site
                        {
                          OFFSET 0.1475 -2.0882 0.0028
                        }
                      }
                    }
                  }
                  JOINT RightFinger3
                  {
                    OFFSET -0.6113 -8.7231 -2.0637
                    CHANNELS 3 Zrotation Xrotation Yrotation
                    JOINT RightFinger31
                    {
                      OFFSET 0.1927 -3.8059 -0.2383
                      CHANNELS 3 Zrotation Xrotation Yrotation
                      JOINT RightFinger32
                      {
                        OFFSET 0.1091 -2.1688 -0.1362
                        CHANNELS 3 Zrotation Xrotation Yrotation
                        End Site
                        {
                          OFFSET 0.2358 -1.9176 -0.0906
                        }
                      }
                    }
                  }
                  JOINT RightFinger4
                  {
                    OFFSET 0.6151 -8.0947 -3.564
                    CHANNELS 3 Zrotation Xrotation Yrotation
                    JOINT RightFinger41
                    {
                      OFFSET 0.4882 -2.341 -0.6462
                      CHANNELS 3 Zrotation Xrotation Yrotation
                      JOINT RightFinger42
                      {
                        OFFSET 0.3574 -1.7166 -0.4742
                        CHANNELS 3 Zrotation Xrotation Yrotation
                        End Site
                        {
                          OFFSET 0.4187 -1.5237 -0.3496
                        }
                      }
                    }
                  }
                  JOINT RightFinger0
                  {
                    OFFSET 1.4199 -1.8761 1.4221
                    CHANNELS 3 Zrotation Xrotation Yrotation
                    JOINT RightFinger01
                    {
                      OFFSET 1.1472 -3.4929 2.6336
                      CHANNELS 3 Zrotation Xrotation Yrotation
                      JOINT RightFinger02
                      {
                        OFFSET 0.8229 -2.3 1.6571
                        CHANNELS 3 Zrotation Xrotation Yrotation
                        End Site
                        {
                          OFFSET 0.5822 -1.6914 1.1582
                        }
                      }
                    }
                  }
                }
              }
            }
          }
        }
      }
    }
    JOINT RightHip
    {
      OFFSET -9.412 3.9771 -0.7758
      CHANNELS 3 Zrotation Xrotation Yrotation
      JOINT RightKnee
      {
        OFFSET -0.7531 -40.938 0
        CHANNELS 3 Zrotation Xrotation Yrotation
        JOINT RightAnkle
        {
          OFFSET 0 -40.1986 0
          CHANNELS 3 Zrotation Xrotation Yrotation
          JOINT RightToe
          {
            OFFSET 0 -4.4182 9.239
            CHANNELS 3 Zrotation Xrotation Yrotation
            End Site
            {
              OFFSET 0 0 6.1981
            }
          }
        }
      }
    }
    JOINT LeftHip
    {
      OFFSET 9.4119 3.9773 -0.7758
      CHANNELS 3 Zrotation Xrotation Yrotation
      JOINT LeftKnee
      {
        OFFSET 0.7532 -40.9383 0
        CHANNELS 3 Zrotation Xrotation Yrotation
        JOINT LeftAnkle
        {
          OFFSET 0 -40.1986 0
          CHANNELS 3 Zrotation Xrotation Yrotation
          JOINT LeftToe
          {
            OFFSET 0 -4.4182 9.239
            CHANNELS 3 Zrotation Xrotation Yrotation
            End Site
            {
              OFFSET 0 0 6.1981
            }
          }
        }
      }
    }
  }
}
MOTION
Frames:	4
Frame Time:	0.0333333
6.14637 -0.345482 1.81092 0 0 -0 -5.55736 -0.266927 5.49541 1.01554 -0.00604755 -1.23704 2.03073 -0.0340164 -2.47376 2.03074 -0.0340167 -2.47377 -0.101438 -0.041127 -2.72821 7.75763 0.431269 2.76998 3.14492 0.360753 -9.10583 5.93373 9.10265 21.2506 -10.6479 -32.5875 4.87588 -4.27502 6.15056 8.27366 4.78297 -2.95359 0.37959 -0.168783 -2.22033 -0.890385 4.78068 -2.95264 0.379458 4.76781 -2.94857 0.590548 -0.369783 -2.06323 0.400397 4.76845 -2.94942 0.590859 4.6286 -3.1365 0.73697 -0.370871 -2.27285 0.767598 4.63048 -3.13817 0.7376 4.64085 -3.08394 0.890834 -0.0709989 -2.03059 1.73326 4.64244 -3.08519 0.891332 -1.77602 -2.37553 0.455709 -1.23471 -0.601709 0.234459 -1.77613 -2.3752 0.455967 2.28404 0.0619346 10.4509 -15.543 1.56299 -19.1202 20.2083 -31.5901 13.2541 -3.9919 -6.39244 7.77789 5.32541 1.81344 -0.170116 5.32399 1.81295 -0.170154 5.32287 1.81303 -0.16998 5.32255 1.81353 0.0423221 5.32331 1.81399 0.0427002 5.32328 1.81415 0.0424587 5.23671 2.0281 0.20291 5.23849 2.02957 0.20309 5.23891 2.0294 0.20317 5.24639 1.97517 0.35582 5.24871 1.97623 0.355854 5.24815 1.97612 0.35597 -1.16953 2.64227 0.857647 -1.16999 2.64219 0.857884 -1.1697 2.64197 0.857672 7.17052 1.91058 4.29842 -0.62392 0.0999665 -0.285605 1.96567 -3.1229 -8.86983 0.13903 0.964584 -0.0564863 12.4538 -3.07352 4.31739 -0.153634 9.89995 -0.594037 -3.218 -6.68639 -9.02114 0.129256 -0.967571 0.00106458 
6.16551 -0.330795 1.77105 0 0 -0 -5.35216 -0.173069 5.18531 0.938855 -0.039864 -1.23242 1.87664 -0.0999062 -2.46403 1.87664 -0.0999061 -2.46403 -0.00398291 0.00194395 -2.59286 7.93205 0.567634 3.04802 3.25984 0.301323 -9.16736 7.28213 8.34032 21.1573 -10.9053 -33.2461 4.73567 -3.95894 5.68836 8.47659 4.97061 -3.02987 0.366718 -0.174633 -2.28746 -0.921242 4.93905 -3.04953 0.396203 4.93801 -3.03273 0.571902 -0.381493 -2.13243 0.408862 4.92654 -3.04587 0.614575 4.79009 -3.23666 0.720956 -0.382154 -2.34917 0.789181 4.78423 -3.24068 0.766299 4.80326 -3.18371 0.879664 -0.0722845 -2.10026 1.7873 4.79672 -3.18577 0.925047 -1.77604 -2.37555 0.455711 -1.23466 -0.601508 0.234446 -1.77597 -2.37502 0.455934 2.32389 0.0682045 10.3285 -16.109 2.01144 -19.8871 19.9156 -32.3962 12.022 -4.09174 -6.47334 7.72892 5.32542 1.81347 -0.170134 5.324 1.81293 -0.170137 5.32288 1.81304 -0.169985 5.32258 1.81352 0.0423316 5.3233 1.81398 0.0427207 5.32328 1.81412 0.0424553 5.23673 2.02811 0.202912 5.2385 2.02958 0.203089 5.23894 2.02938 0.203172 5.24638 1.97518 0.35583 5.24871 1.97623 0.355863 5.24819 1.9761 0.355972 -1.16953 2.64227 0.85761 -1.17 2.64222 0.857891 -1.16969 2.64197 0.857681 6.90515 1.8544 4.23295 -0.518902 0.000953496 -0.123818 1.95278 -3.01768 -8.69878 0.114966 0.978596 -0.056862 12.1719 -2.79231 4.31141 -0.102378 9.34019 -0.387009 -3.22628 -6.42861 -8.90464 0.130869 -0.982477 0.00109442 
6.20201 -0.311676 1.66987 0 0 -0 -5.08107 -0.066593 4.90851 0.854744 -0.090643 -1.21866 1.70736 -0.199433 -2.43584 1.70735 -0.199432 -2.43583 0.0131631 0.0515771 -2.62055 8.16887 0.810148 3.42879 3.58063 0.13344 -9.34042 8.47507 7.68601 21.0673 -11.4918 -35.1327 4.65958 -3.06533 4.39354 9.05972 5.48962 -3.24039 0.333176 -0.191021 -2.47259 -1.00761 5.37714 -3.31715 0.443888 5.40884 -3.26513 0.522135 -0.413141 -2.32245 0.435952 5.36399 -3.31221 0.681516 5.23694 -3.51328 0.678392 -0.413225 -2.5605 0.847615 5.20959 -3.52367 0.847071 5.25246 -3.45919 0.850447 -0.0759398 -2.29365 1.93574 5.22358 -3.46326 1.01966 -1.77603 -2.37555 0.455721 -1.23472 -0.601657 0.234464 -1.77585 -2.37483 0.455902 2.43749 0.0851551 9.98449 -16.9154 2.47816 -20.6867 20.394 -33.8681 11.2783 -4.37843 -6.70802 7.57536 5.32543 1.81347 -0.170125 5.32401 1.81295 -0.17014 5.32287 1.81302 -0.169965 5.32259 1.81355 0.0423515 5.32331 1.81399 0.0427257 5.32329 1.81413 0.0424687 5.23674 2.02812 0.202919 5.2385 2.02957 0.203092 5.23893 2.02938 0.203184 5.24639 1.9752 0.35585 5.24874 1.97623 0.355859 5.24817 1.97609 0.355978 -1.16954 2.64224 0.857584 -1.17001 2.64221 0.857909 -1.16968 2.64197 0.857677 6.543 1.70766 4.02577 -0.380802 -0.0190954 0.063756 1.99065 -2.92704 -8.45877 0.0484463 1.01726 -0.0578401 11.7988 -2.51797 4.28107 -0.039391 8.66701 -0.134938 -3.22493 -6.06427 -8.81648 0.135337 -1.02377 0.00116452 
6.25283 -0.290237 1.51996 0 0 -0 -4.76179 0.0449331 4.65305 0.765169 -0.154951 -1.19887 1.52692 -0.325861 -2.39557 1.52692 -0.325862 -2.39557 -0.0357237 0.108153 -2.77441 8.45527 1.13916 3.89364 4.07009 -0.127811 -9.6078 9.52479 7.13461 20.9902 -12.3896 -38.0325 4.62676 -1.66979 2.40749 9.99258 6.27421 -3.55704 0.288318 -0.216196 -2.75092 -1.14099 6.03958 -3.7207 0.519835 6.12062 -3.61504 0.451843 -0.46119 -2.61055 0.471686 6.02558 -3.71355 0.786539 5.91265 -3.93012 0.61857 -0.459878 -2.88075 0.932433 5.8532 -3.95003 0.97313 5.93179 -3.87431 0.810853 -0.0809594 -2.58804 2.15705 5.86955 -3.88111 1.16658 -1.77604 -2.37553 0.455753 -1.23467 -0.601601 0.234447 -1.77572 -2.37463 0.455889 2.61601 0.109848 9.45384 -17.8992 2.96263 -21.4967 21.5296 -35.9098 10.9676 -4.83351 -7.08388 7.30636 5.32542 1.81346 -0.170118 5.32402 1.81294 -0.170132 5.32286 1.81304 -0.169952 5.32257 1.81355 0.0423532 5.32331 1.81399 0.0427145 5.32328 1.8141 0.0424812 5.23673 2.02811 0.202939 5.23848 2.02957 0.203111 5.23894 2.02939 0.203168 5.24638 1.97519 0.355873 5.2487 1.97621 0.355878 5.24817 1.97608 0.355979 -1.16953 2.64229 0.857566 -1.16998 2.64216 0.857923 -1.16971 2.64196 0.857689 6.11274 1.43866 3.70076 -0.219971 0.13273 0.275599 2.05653 -2.89628 -8.15616 -0.0647732 1.08313 -0.0592638 11.359 -2.25075 4.23011 0.0324504 7.91647 0.151913 -3.21348 -5.62189 -8.7468 0.142088 -1.08613 0.00127759 
